<?xml version="1.0" encoding="UTF-8" standalone="no"?>
<svg
   viewBox="0 0 145 160.6"
   version="1.1"
   id="svg4"
   sodipodi:docname="datarepo.svg"
   inkscape:version="1.4 (e7c3feb1, 2024-10-09)"
   xmlns:inkscape="http://www.inkscape.org/namespaces/inkscape"
   xmlns:sodipodi="http://sodipodi.sourceforge.net/DTD/sodipodi-0.dtd"
   xmlns="http://www.w3.org/2000/svg"
   xmlns:svg="http://www.w3.org/2000/svg">
  <defs
     id="defs4">
    <linearGradient
       id="swatch11"
       inkscape:swatch="solid">
      <stop
         style="stop-color:#afd139;stop-opacity:1;"
         offset="0"
         id="stop11" />
    </linearGradient>
    <rect
       x="12.678948"
       y="53.251581"
       width="90.612214"
       height="71.340213"
       id="rect4" />
  </defs>
  <sodipodi:namedview
     id="namedview4"
     pagecolor="#ffffff"
     bordercolor="#000000"
     borderopacity="0.25"
     inkscape:showpageshadow="2"
     inkscape:pageopacity="0.0"
     inkscape:pagecheckerboard="0"
     inkscape:deskcolor="#d1d1d1"
     inkscape:zoom="5"
     inkscape:cx="72"
     inkscape:cy="80"
     inkscape:window-width="1376"
     inkscape:window-height="1099"
     inkscape:window-x="1376"
     inkscape:window-y="25"
     inkscape:window-maximized="0"
     inkscape:current-layer="svg4" />
  <path
     fill="#359348"
     d="M1 50.5v59.3a20 20 0 0010 17.3l51.4 29.7a19.7 19.7 0 0019.9 0l51.4-29.7a20 20 0 0010-17.3V50.5a20 20 0 00-10-17.3L82.3 3.5a20.4 20.4 0 00-20 0L10.9 33.2A20.1 20.1 0 001 50.5z"
     id="path1"
     style="fill:#00788f;fill-opacity:1" />
  <path
     fill="#73ad43"
     d="M18.8 38.8L5.2 88.6c-1.6 6 0 12.4 4.4 16.8L46 142.2a17.3 17.3 0 0016.7 4.6l50-13.1c6-1.6 10.7-6.2 12.3-12.2l13.6-49.9c1.6-6 0-12.4-4.4-16.8L97.9 18a17.3 17.3 0 00-16.7-4.6l-50 13.1c-6 1.7-10.7 6.3-12.4 12.3z"
     opacity=".6"
     id="path2"
     style="fill:#00afcf;fill-opacity:0.79761904" />
  <path
     fill="#afd139"
     fill-rule="evenodd"
     d="M66.1 132.1l-9.2-2.9c-33.6-10.2-27.3-3.5-35.2-37.7-7.9-34.2-10.6-25.4 15-49.3 25.6-24 16.6-21.9 50.2-11.7s27.3 3.5 35.2 37.7c7.9 34.2 10.6 25.4-15 49.3C86.4 136.9 88.3 139.2 72 134l-5.9-1.9z"
     clip-rule="evenodd"
     opacity=".8"
     id="path3"
     style="fill:#00e3ff;fill-opacity:1" />
  <path
     d="m 33.94633,61.643828 c 0,-0.586666 -0.44,-1.026666 -1.026666,-1.026666 H 14.146352 c -0.586666,0 -1.026665,0.44 -1.026665,1.026666 v 2.93333 c 0,0.586665 0.439999,1.026665 1.026665,1.026665 h 6.159993 v 14.519983 c 0,0.586666 0.44,1.026666 1.026666,1.026666 h 4.399995 c 0.586666,0 1.026665,-0.44 1.026665,-1.026666 V 65.603823 h 6.159993 c 0.586666,0 1.026666,-0.44 1.026666,-1.026665 z m 3.666655,19.506644 h 9.239989 c 7.919991,0 12.026653,-4.106662 12.026653,-10.266655 0,-6.159993 -4.106662,-10.266655 -12.026653,-10.266655 h -9.239989 c -0.586666,0 -1.026666,0.44 -1.026666,1.026666 v 18.479978 c 0,0.586666 0.44,1.026666 1.026666,1.026666 z m 5.42666,-4.693328 V 65.31049 h 3.813329 c 3.37333,0 5.279994,1.906664 5.279994,5.573327 0,3.666662 -1.906664,5.573327 -5.279994,5.573327 z m 36.666599,-4.399995 c 0,0 3.959996,-0.879999 3.959996,-4.693328 0,-3.666662 -3.079997,-6.746659 -9.533322,-6.746659 H 63.426263 c -0.586666,0 -1.026665,0.44 -1.026665,1.026666 v 18.479978 c 0,0.586666 0.439999,1.026666 1.026665,1.026666 h 4.399995 c 0.586666,0 1.026666,-0.44 1.026666,-1.026666 V 74.11048 h 3.813329 c 1.613331,0 2.170664,0.586666 2.639997,1.466665 l 2.49333,4.546661 c 0.322666,0.586666 0.733332,1.026666 1.906664,1.026666 h 4.546662 c 0.733332,0 0.967999,-0.586666 0.733332,-1.026666 l -2.49333,-4.546661 C 81.026243,72.937148 79.706244,72.350482 79.706244,72.350482 Z M 68.852924,69.417152 V 65.31049 h 5.279994 c 1.906664,0 2.786663,0.879999 2.786663,2.053331 0,1.173332 -0.879999,2.053331 -2.786663,2.053331 z"
     id="text4"
     style="font-size:29.3333px;font-family:'Days Sans Black';-inkscape-font-specification:'Days Sans Black, ';white-space:pre;fill:#ffffff"
     transform="matrix(1.286633,0,0,1.4036781,8.0731501,-19.823511)"
     aria-label="TDR" />
  <path
     style="fill:#00788f;fill-opacity:1;stroke-width:0.169053"
     d="m 69.396108,159.15855 c -1.926478,-0.3021 -4.004191,-0.9703 -5.74779,-1.84849 C 60.980106,155.96616 10.322718,126.5957 9.1288425,125.70041 4.7891238,122.44604 1.9207984,117.53319 1.2758315,112.24982 1.1317063,111.06919 1.0958221,102.31062 1.1400837,79.116635 1.2063053,44.415103 1.1209912,47.196254 2.2179354,43.979816 3.5164382,40.172372 6.3480939,36.422455 9.6213567,34.175585 11.023162,33.213341 61.560449,3.9966206 63.460616,3.0499209 68.772747,0.40331522 75.242455,0.3267502 80.764725,2.8451373 81.968181,3.3939638 133.51975,33.156424 135.07306,34.199169 c 0.55787,0.374506 1.74651,1.410207 2.64141,2.301559 2.69453,2.683833 4.32954,5.568141 5.32686,9.397063 l 0.48436,1.859579 v 32.204528 c 0,35.067372 0.0559,32.983742 -0.96913,36.092742 -1.40529,4.26215 -4.49881,8.19842 -8.32877,10.5977 -1.76953,1.10853 -52.227542,30.19914 -53.336103,30.74992 -3.449683,1.71396 -7.661824,2.35749 -11.495579,1.75629 z m -8.452632,-11.92494 c 1.480889,-0.23953 51.072434,-13.21737 52.998004,-13.86929 4.52545,-1.53214 8.04748,-4.69367 10.094,-9.06082 0.52677,-1.1241 2.1713,-6.93525 7.74111,-27.354042 3.88974,-14.259696 7.16521,-26.502945 7.27882,-27.207218 0.3251,-2.015273 0.12528,-5.57006 -0.41857,-7.446343 -0.56398,-1.94576 -1.69378,-4.250984 -2.79792,-5.708853 C 135.3622,55.957607 126.39344,46.75269 115.90833,36.131674 101.4943,21.530804 96.529722,16.603187 95.553922,15.928795 c -3.393737,-2.345468 -7.19199,-3.356968 -11.450235,-3.049274 -1.75105,0.126528 -1.647991,0.101204 -20.117264,4.943229 -6.276079,1.645377 -14.606147,3.828856 -18.511263,4.852172 -16.956656,4.443415 -16.538951,4.314832 -19.005486,5.850449 -2.87828,1.791959 -5.097226,4.26926 -6.605254,7.374306 -0.75056,1.545411 -1.376318,3.707263 -6.343783,21.916325 -3.031096,11.110985 -6.1576728,22.557776 -6.9479482,25.437313 -0.7902753,2.879537 -1.541128,5.7323 -1.6685615,6.339474 -1.0290111,4.902851 0.1159075,10.114856 3.083387,14.036481 0.8121316,1.07326 1.8909248,2.17888 18.4743597,18.93389 8.144374,8.22864 15.899459,16.08458 17.233521,17.45765 3.762012,3.872 5.665816,5.25774 8.763032,6.37844 2.58205,0.9343 5.868951,1.25751 8.485049,0.83436 z"
     id="path4" />
  <path
     style="fill:#00788f;fill-opacity:1;stroke-width:0.169053"
     d=""
     id="path5" />
</svg>
