<?xml version="1.0" encoding="UTF-8" standalone="no"?>
<!-- Created with Inkscape (http://www.inkscape.org/) -->

<svg
   width="500mm"
   height="500mm"
   viewBox="0 0 500 500"
   version="1.1"
   xmlns="http://www.w3.org/2000/svg"
   xmlns:svg="http://www.w3.org/2000/svg">
  <path
     id="favicon-rect-1"
     style="fill:#fcd34d"
     d="m 142.5,0 h 215 C 381.045,0 400,18.955 400,42.5 400,66.045 381.045,85 357.5,85 h -215 C 118.955,85 100,66.045 100,42.5 100,18.955 118.955,0 142.5,0 Z" />
  <path
     id="favicon-rect-2"
     style="fill:#fcd34d"
     d="m 42.5,138.33333 h 415 c 23.545,0 42.5,18.955 42.5,42.5 0,23.545 -18.955,42.5 -42.5,42.5 h -415 c -23.545,0 -42.5,-18.955 -42.5,-42.5 0,-23.545 18.955,-42.5 42.5,-42.5 z" />
   <path
     id="favicon-rect-3"
     style="fill:#fcd34d"
     d="m 92.5,276.66666 h 315 c 23.545,0 42.5,18.955 42.5,42.5 0,23.545 -18.955,42.5 -42.5,42.5 h -315 c -23.545,0 -42.5,-18.955 -42.5,-42.5 0,-23.545 18.955,-42.5 42.5,-42.5 z" />
   <path
     id="favicon-rect-4"
     style="fill:#fcd34d"
     d="m 192.5,415 h 115 c 23.545,0 42.5,18.955 42.5,42.5 0,23.545 -18.955,42.5 -42.5,42.5 h -115 C 168.955,500 150,481.045 150,457.5 150,433.955 168.955,415 192.5,415 Z" />
</svg>
